<?xml version="1.0" encoding="UTF-8"?>
<svg width="40px" height="40px" viewBox="0 0 40 40" version="1.1" xmlns="http://www.w3.org/2000/svg" xmlns:xlink="http://www.w3.org/1999/xlink">
    <!-- Generator: Sketch 52.6 (67491) - http://www.bohemiancoding.com/sketch -->
    <title>Nutanix-Era</title>
    <desc>Created with Sketch.</desc>
    <defs>
        <polygon id="path-1" points="0.00697674419 0.034047619 39.895 0.034047619 39.895 39.9928571 0.00697674419 39.9928571"></polygon>
    </defs>
    <g id="Nutanix-Era" stroke="none" stroke-width="1" fill="none" fill-rule="evenodd">
        <mask id="mask-2" fill="white">
            <use xlink:href="#path-1"></use>
        </mask>
        <g id="Clip-2"></g>
        <path d="M36.217093,20.0170238 C35.6648837,20.5070238 35.0580233,20.97 34.4013953,21.4025 C36.469186,23.0935714 37.6856977,25.1627381 37.6856977,27.3978571 C37.6856977,33.1085714 29.7440698,37.7380952 19.9475581,37.7380952 C10.1509302,37.7380952 2.20930233,33.1085714 2.20930233,27.3978571 C2.20930233,21.6869048 10.1509302,17.0575 19.9475581,17.0575 C24.7847674,17.0575 29.1689535,18.1867857 32.3690698,20.0170238 C33.1134884,19.5911905 33.7944186,19.1278571 34.4013953,18.6315476 C30.7940698,16.255119 25.6904651,14.7955952 19.9475581,14.7955952 C8.76197674,14.7955952 0,20.3310714 0,27.3978571 C0,34.4644048 8.76197674,40 19.9475581,40 C31.1330233,40 39.895,34.4644048 39.895,27.3978571 C39.895,24.6197619 38.5402326,22.0785714 36.217093,20.0170238" id="Fill-1" fill="#A7CB3B" mask="url(#mask-2)"></path>
        <path d="M19.9475581,0.034047619 C8.76197674,0.034047619 0,5.56964286 0,12.6363095 C0,15.4144048 1.35476744,17.9554762 3.67790698,20.0170238 C4.23011628,19.5270238 4.83709302,19.0640476 5.49360465,18.6315476 C3.42581395,16.9404762 2.20930233,14.8711905 2.20930233,12.6363095 C2.20930233,6.92547619 10.1509302,2.29595238 19.9475581,2.29595238 C29.7440698,2.29595238 37.6856977,6.92547619 37.6856977,12.6363095 C37.6856977,18.3470238 29.7440698,22.9766667 19.9475581,22.9766667 C15.1102326,22.9766667 10.7260465,21.847381 7.52604651,20.0170238 C6.78151163,20.4428571 6.1005814,20.9061905 5.49360465,21.4025 C9.10093023,23.7789286 14.2045349,25.2385714 19.9475581,25.2385714 C31.1330233,25.2385714 39.895,19.7029762 39.895,12.6363095 C39.895,5.56964286 31.1330233,0.034047619 19.9475581,0.034047619" id="Fill-3" fill="#194688" mask="url(#mask-2)"></path>
    </g>
</svg>